<?xml version="1.0" encoding="UTF-8"?>
<svg id="Layer_2" data-name="Layer 2" xmlns="http://www.w3.org/2000/svg" viewBox="0 0 100 100">
  <defs>
    <style>
      .cls-1 {
        fill: #fff;
      }

      .cls-1, .cls-2 {
        stroke-width: 0px;
      }

      .cls-2 {
        fill: #349bde;
      }
    </style>
  </defs>
  <g id="Layer_1-2" data-name="Layer 1">
      <path class="cls-2" d="m41.57,107.05h9.44v-26.22l20.37,24.89,7.31-5.98-27.39-33.46,42.8,24.71,4.72-8.18-22.7-13.11,31.74-5.2-1.53-9.32-42.67,6.99,42.81-24.71-4.72-8.18-22.7,13.11,11.37-30.08-8.83-3.34-15.28,40.45V0h-9.44v26.22L36.48,1.33l-7.31,5.98,27.39,33.46L13.76,16.06l-4.72,8.18,22.7,13.11L0,42.54l1.53,9.32,42.67-6.99L1.39,69.58l4.72,8.18,22.7-13.11-11.37,30.08,8.83,3.34,15.28-40.45v49.43Z"/>
  </g>
</svg>